<?xml version="1.0" encoding="utf-8"?>
<!-- Generator: Adobe Illustrator 15.1.0, SVG Export Plug-In . SVG Version: 6.00 Build 0)  -->
<!DOCTYPE svg PUBLIC "-//W3C//DTD SVG 1.1//EN" "http://www.w3.org/Graphics/SVG/1.1/DTD/svg11.dtd">
<svg version="1.1" id="Livello_1" xmlns="http://www.w3.org/2000/svg" xmlns:xlink="http://www.w3.org/1999/xlink" x="0px" y="0px"
	 width="841.89px" height="595.28px" viewBox="0 0 841.89 595.28" enable-background="new 0 0 841.89 595.28" xml:space="preserve">
<g>
	<g>
		<g>
			<path d="M88.717,483.22c-10.277,0-17.608-1.755-22.418-5.354c-4.985-3.743-7.412-11.457-7.412-23.575v-13.604
				c0-10.915,2.04-18.329,6.224-22.655c4.2-4.358,11.921-6.475,23.605-6.475c11.955,0,19.612,1.357,23.404,4.146
				c3.989,2.938,5.928,9.701,5.928,20.688v2.024h-16.656v-2.024c0-7.094-1.193-8.374-1.33-8.498
				c-0.235-0.217-1.856-1.28-10.445-1.28c-8.075,0-10.652,1.125-11.468,1.791c-0.604,0.496-2.008,2.468-2.008,10.084v15.603
				c0,8.235,1.448,10.904,2.308,11.767c0.862,0.862,3.547,2.309,11.87,2.309c6.947,0,9.183-1.152,9.895-1.839
				c1.25-1.197,1.876-3.227,1.876-6.035v-5.53h16.256v2.029c0,10.564-1.955,17.467-5.966,21.102
				C108.419,481.476,100.688,483.22,88.717,483.22z M88.717,415.614c-10.378,0-17.34,1.756-20.693,5.235
				c-3.369,3.49-5.081,10.161-5.081,19.837v13.604c0,10.61,1.949,17.446,5.788,20.327c4.027,3.016,10.75,4.544,19.986,4.544
				c13.409,0,18.791-2.323,20.947-4.271c2.84-2.576,4.389-7.977,4.603-16.077h-8.122v1.477c0,3.96-1.045,6.976-3.121,8.958
				c-2.109,2.023-6.144,2.974-12.704,2.974c-7.673,0-12.355-1.115-14.736-3.5c-2.383-2.376-3.493-7.027-3.493-14.633v-15.603
				c0-7.063,1.11-11.266,3.493-13.218c2.256-1.849,6.715-2.711,14.034-2.711c9.371,0,11.955,1.245,13.155,2.318
				c1.642,1.477,2.479,4.44,2.646,9.485h8.55c-0.253-10.265-2.419-14.049-4.249-15.392
				C107.635,417.438,102.304,415.614,88.717,415.614z"/>
		</g>
		<g>
			<path d="M191.347,482.72h-17.178l-4.298-12.8h-25.655l-3.999,12.8h-17.495l23.334-70.761h21.528L191.347,482.72z
				 M177.083,478.666h8.625l-21.037-62.654h-15.68l-20.666,62.654h8.906l4.001-12.804h31.552L177.083,478.666z M171.337,460.415
				H142.93l14.08-40.401L171.337,460.415z M148.516,456.361h17.204l-8.677-26.094L148.516,456.361z"/>
		</g>
		<g>
			<path d="M257.359,482.72h-16.752v-15.629c0-2.303-0.624-3.935-1.899-4.978c-1.395-1.125-3.434-1.698-6.075-1.698h-15.778v22.305
				h-16.352v-70.761h34.128c8.331,0,14.186,1.621,17.909,4.967c3.782,3.408,5.62,9.181,5.62,17.663
				c0,7.348-0.997,12.159-3.041,14.72c-1.05,1.307-2.47,2.417-4.28,3.336c1.26,0.666,2.347,1.549,3.26,2.659
				c2.164,2.628,3.261,6.258,3.261,10.785V482.72z M241.674,452.376c4.048-0.898,8.85-3.82,10.28-5.607
				c0.981-1.229,2.156-4.337,2.156-12.18c0-7.166-1.44-12.087-4.283-14.647c-2.898-2.607-8.016-3.93-15.195-3.93h-30.078v62.654
				h8.251v-22.305h19.829c3.594,0,6.498,0.878,8.627,2.603c2.256,1.838,3.4,4.564,3.4,8.127v11.575h8.646v-12.577
				c0-3.562-0.788-6.319-2.336-8.209C249.493,456.088,244.795,452.376,241.674,452.376 M232.633,449.619h-19.829v-26.56h20.626
				c5.135,0,8.346,1.156,9.825,3.553c1.281,2.064,1.903,5.576,1.903,10.719c0,4.389-0.947,7.465-2.896,9.406
				C240.313,448.674,237.164,449.619,232.633,449.619z M216.855,445.565h15.778c3.312,0,5.651-0.594,6.769-1.698
				c1.115-1.115,1.706-3.372,1.706-6.536c0-5.648-0.813-7.807-1.301-8.592c-0.302-0.485-1.531-1.621-6.376-1.621h-16.576V445.565z"
				/>
		</g>
		<g>
			<path d="M353.27,482.72h-16.055v-46.918l-17.366,46.918h-14.211l-17.676-46.824v46.824h-15.853v-70.761L296,411.943
				l16.625,46.153l16.38-46.138h24.264V482.72z M293.15,416.002l-16.987,0.005v62.659h7.745v-45.771l7.267-0.031l17.265,45.802
				h8.589l16.899-46.086l7.342,0.011v46.075h7.946v-62.654h-17.345l-19.181,53.021L293.15,416.002z"/>
		</g>
		<g>
			<path d="M429.869,482.72h-17.178l-4.301-12.8h-25.653l-4.004,12.8h-17.496l23.34-70.761h21.525L429.869,482.72z M415.604,478.666
				h8.622l-21.034-62.654h-15.681l-20.667,62.654h8.912l4.001-12.804h31.549L415.604,478.666z M409.854,460.415h-28.402
				l14.075-40.401L409.854,460.415z M387.039,456.361h17.199l-8.672-26.094L387.039,456.361z"/>
		</g>
		<g>
			<path d="M468.355,483.22c-12.046,0-20.069-2.013-24.53-6.144c-4.45-4.11-6.702-11.204-6.702-21.086v-18.103
				c0-10.801,2.474-17.792,7.564-21.364c4.863-3.408,12.799-5.06,24.267-5.06c11.308,0,18.835,1.332,23.012,4.078
				c4.45,2.933,6.614,8.994,6.614,18.546v2.024h-16.553v-2.024c0-2.292-0.331-5.24-1.932-6.263
				c-0.888-0.562-3.537-1.513-11.338-1.513c-8.509,0-11.369,1.456-12.324,2.313c-1.627,1.486-2.453,4.461-2.453,8.834v18.768
				c0,7.404,1.539,9.562,2.469,10.197c1.291,0.888,4.398,1.936,11.906,1.936c8.209,0,10.754-1.362,11.544-2.173
				c0.724-0.754,1.89-2.959,2.097-9.371h-16.568v-13.554h33.152v2.024c0,16.677-1.591,26.89-4.858,31.227
				C490.318,481.026,482.021,483.22,468.355,483.22z M468.954,415.511c-10.461,0-17.844,1.457-21.943,4.338
				c-3.867,2.716-5.834,8.787-5.834,18.039v18.103c0,8.705,1.817,14.797,5.4,18.112c3.624,3.355,10.956,5.06,21.778,5.06
				c15.117,0,20.379-2.768,22.134-5.091c1.776-2.354,3.883-8.933,4.032-26.755H469.48v5.441h16.6v2.034
				c0,7.384-1.038,11.896-3.269,14.209c-2.251,2.334-6.847,3.418-14.456,3.418c-6.961,0-11.602-0.867-14.199-2.654
				c-2.85-1.94-4.233-6.381-4.233-13.537V437.46c0-5.639,1.239-9.506,3.779-11.824c2.499-2.271,7.419-3.376,15.056-3.376
				c6.929,0,11.214,0.687,13.517,2.147c2.158,1.379,3.397,3.95,3.723,7.651h8.493c-0.253-6.81-1.848-11.219-4.75-13.13
				C486.292,416.663,479.301,415.511,468.954,415.511z"/>
		</g>
		<g>
			<path d="M576.29,482.72h-24.282l-25.025-50.134v50.134h-15.949v-70.761h24.179l25.025,50.134v-50.134h16.053V482.72z
				 M554.512,478.666h17.725v-62.654h-7.951v49.147h-6.381l-25.196-49.147h-17.627v62.654h7.848v-49.152h6.388L554.512,478.666z"/>
		</g>
		<g>
			<path d="M619.365,483.318c-11.617,0-19.227-2.034-23.26-6.222c-4.012-4.161-5.969-11.493-5.969-22.408v-14.002
				c0-11.234,2.282-18.763,6.966-23.007c4.636-4.182,12.277-6.216,23.368-6.216c11.932,0,19.759,2.023,23.926,6.185
				c4.172,4.177,6.195,11.452,6.195,22.243v15.995c0,10.13-2.055,17.079-6.299,21.251C640.06,481.3,631.906,483.318,619.365,483.318
				z M620.471,415.511c-9.903,0-16.848,1.746-20.643,5.179c-3.738,3.382-5.638,10.109-5.638,19.997v14.002
				c0,9.682,1.626,16.27,4.833,19.6c3.18,3.299,10.026,4.978,20.342,4.978c11.266,0,18.695-1.694,22.083-5.019
				c3.382-3.325,5.096-9.5,5.096-18.36v-15.995c0-9.531-1.688-16.047-5.008-19.372C638.211,417.194,631.127,415.511,620.471,415.511
				z M619.17,472.522c-6.393,0-10.59-1.012-12.831-3.104c-2.318-2.147-3.397-6.613-3.397-14.059v-16.439
				c0-7.27,1.131-11.627,3.547-13.713c2.34-2.014,6.842-2.948,14.179-2.948c7.187,0,11.586,1.048,13.837,3.299
				c2.215,2.22,3.294,6.33,3.294,12.562v17.839c0,6.485-1.307,10.78-3.985,13.146C631.199,471.407,626.408,472.522,619.17,472.522z
				 M620.667,426.312c-8.05,0-10.678,1.229-11.524,1.967c-0.65,0.553-2.148,2.7-2.148,10.642v16.439
				c0,8.25,1.467,10.502,2.102,11.09c0.811,0.754,3.196,2.014,10.074,2.014c7.631,0,10.708-1.301,11.963-2.4
				c1.709-1.503,2.607-4.998,2.607-10.104V438.12c0-6.598-1.322-8.906-2.107-9.696C630.849,427.634,628.375,426.312,620.667,426.312
				z"/>
		</g>
		<g>
			<path d="M710.505,482.72h-47.562v-70.761h16.955v55.503h30.607V482.72z M667,478.666h39.446v-7.146H675.85v-55.509H667V478.666z"
				/>
		</g>
		<g>
			<path d="M781.9,482.72h-17.184l-4.295-12.8h-25.656l-4.001,12.8h-17.492l23.337-70.761h21.525L781.9,482.72z M767.64,478.666
				h8.622l-21.045-62.654h-15.675l-20.668,62.654h8.911l4.002-12.804h31.547L767.64,478.666z M761.888,460.415H733.48l14.074-40.401
				L761.888,460.415z M739.066,456.361h17.204l-8.674-26.094L739.066,456.361z"/>
		</g>
	</g>
	<g>
		<g>
			<polygon fill="#DE211D" points="710.505,208.577 675.323,208.577 607.779,302.46 540.241,208.577 505.064,208.577 
				430.788,208.577 430.788,375.456 505.064,375.456 505.064,277.463 505.333,277.718 580.054,375.394 580.054,375.456 
				580.1,375.456 635.454,375.456 635.506,375.456 635.506,375.394 710.226,277.718 710.505,277.463 710.505,375.456 
				784.771,375.456 784.771,208.577 			"/>
		</g>
		<g>
			<path fill="#FFFFFF" d="M388.177,114.665L276.357,274.114h81.076l15.876-23.04v1.42h59.456l0.697-2.68h53.794l19.491,25.415
				h81.298L471.953,114.665H388.177z M403.992,206.55l26.074-37.835l27.571,37.835H403.992z"/>
		</g>
		<g>
			<path fill="#007A37" d="M276.357,274.114v12.668c0,3.826-5.068,6.926-11.318,6.926H158.628c-11.289,0-20.436-5.14-20.436-11.485
				v-29.729v-29.727c0-6.341,9.146-11.488,20.436-11.488h102.361c6.247,0,11.312,3.103,11.312,6.926v12.668h77.023v-34.965
				c0-24.532-23.44-44.423-52.359-44.423H138.192c-44.777,0-81.076,24.881-81.076,55.573v45.436v45.438
				c0,30.689,36.299,55.57,81.076,55.57h161.476c35.468,0,57.765-23.646,57.765-55.232v-24.156H276.357z"/>
		</g>
		<g>
			<path d="M787.477,378.161h-79.678v-92.819L636.838,378.1h-58.116l-70.962-92.66v92.722h-79.672V255.197h-54.334l-13.618,19.759
				v23.314c0,34.11-24.866,57.932-60.468,57.932H138.192c-46.197,0-83.779-26.141-83.779-58.271v-90.873
				c0-32.133,37.583-58.276,83.779-58.276h158.773c19.594,0,37.783,9.064,47.573,23.394l42.232-60.215h86.562l0.816,1.123
				l67.084,92.791h0.393l0.811,1.126l65.344,90.827l66.15-91.953h113.547V378.161z M713.2,372.761h68.876V211.279H676.707
				l-68.928,95.807l-68.922-95.807h-0.388l-0.806-1.118l-67.089-92.796h-80.996l-45.454,64.823l-2.091-3.792
				c-8.126-14.702-25.815-24.205-45.068-24.205H138.192c-43.218,0-78.376,23.714-78.376,52.868v90.873
				c0,29.151,35.158,52.865,78.376,52.865h161.476c32.936,0,55.065-21.106,55.065-52.527v-24.997l16.178-23.482h62.583v122.97
				h68.865V269.488l79.026,103.2h52.788l74.049-96.795l4.978-4.624V372.761z M265.04,296.411H158.628
				c-12.972,0-23.139-6.231-23.139-14.188v-59.456c0-7.957,10.167-14.191,23.139-14.191h102.361c7.858,0,14.018,4.234,14.018,9.629
				v9.967h36.87l-32.817,46.796v11.813C279.06,292.18,272.898,296.411,265.04,296.411z M158.628,213.982
				c-10.45,0-17.732,4.628-17.732,8.785v59.456c0,4.156,7.282,8.782,17.732,8.782H265.04c4.853,0,8.617-2.269,8.617-4.223v-13.52
				l27.827-39.687h-31.885v-15.371c0-1.954-3.761-4.223-8.609-4.223H158.628z M462.949,209.253h-64.1l31.154-45.208L462.949,209.253
				z M409.134,203.847h43.189l-22.196-30.46L409.134,203.847z"/>
		</g>
	</g>
</g>
</svg>
